<svg xmlns="http://www.w3.org/2000/svg" width="72" height="16" viewBox="0 0 72 16">
    <g fill="none" fill-rule="evenodd">
        <path fill="#FFF" fill-opacity=".01" d="M0 0h72v16H0z"/>
        <g fill-rule="nonzero" transform="translate(.081 .832)">
            <circle cx="6.857" cy="6.857" r="6.857" fill="#EE2737"/>
            <path fill="#FFF" d="M5.571 9.714a.711.711 0 0 1 .715.715.714.714 0 1 1-.715-.715zm2.858 0a.714.714 0 1 1 0 1.429.714.714 0 0 1 0-1.429zM3.022 3.43c.479.01.887.349.987.817l.113.525c1.893-.209 3.804-.199 5.695.03l.09.025a.577.577 0 0 1 .36.675 17.576 17.576 0 0 1-.478 2.365c-.255.7-.893 1.19-1.636 1.255-.874.03-1.776.03-2.65 0a1.83 1.83 0 0 1-1.635-1.255c-.169-.497-.507-2.277-.62-2.92l-.113-.496c0-.058-.056-.087-.113-.087l-.081-.01a.467.467 0 0 1 .081-.924zm3.123 2.31a.286.286 0 0 0-.43.254V7.75a.286.286 0 1 0 .57 0V5.993a.286.286 0 0 0-.14-.254zm1.57-.04a.29.29 0 0 0-.286.294V7.75c.008.155.13.28.285.293A.29.29 0 0 0 8 7.751V5.993a.311.311 0 0 0-.286-.293z"/>
        </g>
        <g fill="#000" fill-rule="nonzero">
            <path d="M19.31 11.117a2.948 2.948 0 0 0 2.563 1.253c1.194 0 2.072-.763 2.072-1.8v-.547h-.029a3.253 3.253 0 0 1-2.46.921 3.988 3.988 0 1 1-.073-7.975c.93-.06 1.845.263 2.533.893h.03v-.749h2.044v7.428c0 2.16-1.713 3.657-4.117 3.657a4.918 4.918 0 0 1-4.089-1.814l1.526-1.267zm4.55-4.62c0-.865-.98-1.657-2.073-1.657-1.383 0-2.304.836-2.304 2.088A2.017 2.017 0 0 0 21.7 9.073c1.195 0 2.16-.749 2.16-1.685v-.892zM31.345 2.897c2.49 0 4.304 1.771 4.304 4.031s-1.813 4.03-4.304 4.03a4.04 4.04 0 1 1 0-8.06zm0 1.872a2.16 2.16 0 1 0 2.174 2.16 2.067 2.067 0 0 0-2.174-2.16zM36.801 3.113h1.872v.734h.029a3.323 3.323 0 0 1 4.764.116h.03a3.335 3.335 0 0 1 2.49-1.066c2.058 0 3.484 1.354 3.484 3.282v4.564h-2.06V6.51a1.644 1.644 0 1 0-3.282 0v4.232h-1.972V6.51a1.65 1.65 0 1 0-3.296 0v4.232h-2.059v-7.63zM53.99 6.194c1.396-.187 1.813-.389 1.813-.778 0-.504-.532-.805-1.352-.805a1.8 1.8 0 0 0-1.901 1.367l-2.016-.418c.288-1.554 1.887-2.663 3.859-2.663 2.23 0 3.613 1.138 3.613 2.994v4.852h-1.915v-.835h-.029a3.149 3.149 0 0 1-2.577 1.05c-1.684 0-2.85-.92-2.85-2.274.001-1.425.95-2.159 3.355-2.49zM55.976 7h-.029c-.187.274-.59.432-1.626.619-1.253.23-1.698.475-1.698.921 0 .461.373.663 1.18.663 1.224 0 2.173-.562 2.173-1.296V7zM59.374 3.113h2v.734h.03a2.95 2.95 0 0 1 2.245-.878c.425.009.847.076 1.253.202l-.447 1.914a4.365 4.365 0 0 0-1.108-.158c-1.166 0-1.843.777-1.843 2.332v3.484h-2.13v-7.63zM69.12 4.927v3.225c0 .475.158.619.777.619h1.396v1.972h-1.611c-1.915 0-2.692-.748-2.692-2.462V4.927h-1.8V3.113h1.8V1.2h2.13v1.914h2.461v1.814h-2.46z"/>
        </g>
    </g>
</svg>
