<svg xmlns="http://www.w3.org/2000/svg" width="69" height="16" viewBox="0 0 69 16">
    <g fill="none" fill-rule="evenodd">
        <path fill="#FFF" fill-opacity=".01" d="M0 0h69v16H0z"/>
        <g fill-rule="nonzero" transform="translate(0 1.714)">
            <ellipse cx="6.843" cy="6.857" fill="#EE2737" rx="6.843" ry="6.857"/>
            <path fill="#FFF" d="M4.581 5.495a38.703 38.703 0 0 1 4.523 0c.323.497.644.982.953 1.444.14.208.213.455.207.705-.018.665-.065 1.33-.143 1.994a1.56 1.56 0 0 1-1.318 1.358c-1.3.196-2.62.196-3.92 0a1.56 1.56 0 0 1-1.318-1.358 22.375 22.375 0 0 1-.143-1.994c-.006-.25.066-.497.207-.705.309-.462.63-.947.952-1.444zm2.262 1.22A.285.285 0 0 0 6.558 7v1H5.56a.285.285 0 0 0 0 .571h.998v1a.285.285 0 1 0 .57 0v-1h.998a.285.285 0 0 0 0-.571h-.998V7a.285.285 0 0 0-.285-.286zM8.489 2.96c.298.04.528.28.556.58.03.332.056.664.078.995a.304.304 0 0 1-.326.321 27.574 27.574 0 0 0-3.908 0 .302.302 0 0 1-.326-.32c.022-.332.048-.664.078-.995.028-.3.258-.541.556-.581 1.093-.137 2.199-.137 3.292 0z"/>
        </g>
        <g fill="#000" fill-rule="nonzero">
            <path d="M19.201 12a2.941 2.941 0 0 0 2.558 1.252c1.192 0 2.069-.763 2.069-1.8v-.546h-.03a3.244 3.244 0 0 1-2.456.921c-1.44.041-2.79-.7-3.53-1.94a3.996 3.996 0 0 1-.036-4.033 3.979 3.979 0 0 1 3.495-2.002 3.417 3.417 0 0 1 2.528.892h.029v-.748h2.04v7.428c0 2.16-1.71 3.656-4.11 3.656a4.907 4.907 0 0 1-4.08-1.813L19.202 12zm4.54-4.621c0-.864-.977-1.656-2.068-1.656-1.38 0-2.3.836-2.3 2.088a2.02 2.02 0 0 0 .61 1.588 2.01 2.01 0 0 0 1.604.557c1.192 0 2.154-.749 2.154-1.685V7.38zM31.212 3.78c2.485 0 4.296 1.77 4.296 4.03 0 2.26-1.811 4.032-4.296 4.032a4.029 4.029 0 0 1-3.71-1.935 4.047 4.047 0 0 1 0-4.192 4.029 4.029 0 0 1 3.71-1.935zm0 1.871a2.157 2.157 0 0 0-2.14 2.17 2.157 2.157 0 0 0 2.16 2.149 2.157 2.157 0 0 0 2.15-2.16 2.07 2.07 0 0 0-.607-1.561 2.06 2.06 0 0 0-1.563-.598zM36.657 3.996h1.867v.734h.029a3.314 3.314 0 0 1 4.756.115h.028a3.329 3.329 0 0 1 2.486-1.065c2.053 0 3.476 1.353 3.476 3.282v4.564h-2.054V7.393a1.645 1.645 0 0 0-.79-1.505 1.638 1.638 0 0 0-1.697 0 1.645 1.645 0 0 0-.789 1.505v4.233h-1.968V7.393a1.652 1.652 0 0 0-.795-1.505 1.645 1.645 0 0 0-1.7 0 1.652 1.652 0 0 0-.795 1.505v4.233h-2.054v-7.63zM54.5 3.78a3.935 3.935 0 0 1 2.971 1.137 3.952 3.952 0 0 1 1.165 2.966v.604H52.46c.072.993.891 1.627 2.156 1.627a3.028 3.028 0 0 0 2.34-1.137l1.323 1.324a4.654 4.654 0 0 1-3.649 1.54c-2.658 0-4.267-1.597-4.267-4.016a3.964 3.964 0 0 1 1.191-2.924 3.947 3.947 0 0 1 2.947-1.12zm2.068 3.21c-.1-.907-.89-1.483-2.026-1.483-1.15 0-1.939.576-2.054 1.483h4.08zM63.536 3.78a3.63 3.63 0 0 1 2.471.82h.028V1.117h2.126v10.509h-1.968v-.749h-.029a3.35 3.35 0 0 1-2.57.965 3.915 3.915 0 0 1-2.942-1.111 3.932 3.932 0 0 1-1.181-2.92 3.975 3.975 0 0 1 1.175-2.884 3.959 3.959 0 0 1 2.89-1.147zm2.5 3.527c0-.907-1.007-1.656-2.17-1.656a2.11 2.11 0 0 0-1.611.576 2.12 2.12 0 0 0-.658 1.584c0 1.31.89 2.145 2.27 2.145 1.206 0 2.168-.749 2.168-1.685v-.964z"/>
        </g>
    </g>
</svg>
